<?xml version="1.0" encoding="UTF-8"?>
<svg width="36px" height="35px" viewBox="0 0 36 35" version="1.1" xmlns="http://www.w3.org/2000/svg" xmlns:xlink="http://www.w3.org/1999/xlink">
    <title>Codepen Icon</title>
    <g id="Landing-Page" stroke="none" stroke-width="1" fill="none" fill-rule="evenodd">
        <g id="Desktop-HD" transform="translate(-349.000000, -526.000000)" fill="#BBACAC">
            <g id="Group" transform="translate(250.000000, 526.000000)">
                <path d="M117.000311,0 C126.428799,0 134.099996,7.67071109 134.099996,17.0999995 C134.099996,26.529288 126.428799,34.1999991 117.000311,34.1999991 C107.570568,34.1999991 99.8999974,26.529288 99.8999974,17.0999995 C99.8999974,7.67071109 107.570568,0 117.000311,0 Z M117.000311,1.84016732 C108.58603,1.84016732 101.739503,8.68556462 101.739503,17.0999995 C101.739503,25.5144345 108.58603,32.3598318 117.000311,32.3598318 C125.413964,32.3598318 132.259235,25.5144345 132.259235,17.0999995 C132.259235,8.68556462 125.413964,1.84016732 117.000311,1.84016732 Z M116.665369,7.05328957 C116.96441,6.85392415 117.353707,6.85392415 117.652677,7.05328957 L117.652677,7.05328957 L127.118187,13.3637192 C127.123114,13.3670039 127.127684,13.3713597 127.132896,13.3746443 L127.153246,13.3896753 L127.153246,13.3896753 L127.198695,13.4259495 L127.198695,13.4259495 L127.22358,13.4476212 C127.23579,13.4585463 127.247357,13.4705425 127.258996,13.4824673 C127.274491,13.4977482 127.2892,13.5141002 127.30341,13.5303807 C127.313763,13.5429482 127.324117,13.5560154 127.333828,13.5690827 C127.347252,13.5865058 127.359534,13.6045001 127.37153,13.6230656 C127.379955,13.6366328 127.388667,13.6502713 127.396807,13.6644811 C127.408017,13.6834751 127.417728,13.7031117 127.427082,13.7233196 C127.433866,13.737458 127.440863,13.7521676 127.446933,13.7668772 C127.455644,13.7880848 127.462713,13.8098636 127.469853,13.8317138 C127.474423,13.8458522 127.47985,13.8599906 127.483706,13.8747002 C127.490275,13.8991925 127.494845,13.9242559 127.499272,13.9493908 C127.501414,13.9624581 127.504699,13.9749542 127.506555,13.9880215 C127.511482,14.0261522 127.514553,14.0648543 127.514553,14.1040561 L127.514553,14.1040561 L127.514553,20.4144858 C127.514553,20.4536876 127.511482,20.4923897 127.506555,20.5310917 C127.504699,20.5436591 127.501414,20.556655 127.499272,20.5691511 C127.494845,20.594286 127.490275,20.6192781 127.483706,20.6438417 C127.47985,20.6585513 127.474423,20.6726897 127.469853,20.6868995 C127.462713,20.7086069 127.455644,20.7304571 127.446933,20.7522359 C127.440863,20.767017 127.433866,20.7811553 127.427082,20.7952937 C127.417728,20.8153588 127.408017,20.8349954 127.396807,20.8546321 C127.388667,20.868342 127.379955,20.8818377 127.37153,20.8954763 C127.359534,20.9140418 127.347252,20.9320361 127.333828,20.9494592 C127.324117,20.9630977 127.313763,20.9755938 127.30341,20.9880898 C127.2892,21.0044418 127.274491,21.0207937 127.258996,21.0360746 C127.247357,21.0479994 127.23579,21.0599956 127.22358,21.0708493 C127.207228,21.0857017 127.190377,21.0998401 127.173168,21.1134072 C127.159887,21.1238325 127.146749,21.134115 127.132896,21.1438976 C127.127684,21.1471823 127.123114,21.151538 127.118187,21.1547513 L127.118187,21.1547513 L117.652677,27.4652523 C117.503156,27.5649351 117.331072,27.615062 117.159202,27.615062 C116.987046,27.615062 116.81489,27.5649351 116.665369,27.4652523 L116.665369,27.4652523 L107.199931,21.1547513 C107.195004,21.151538 107.190362,21.1471823 107.185221,21.1438976 C107.171297,21.134115 107.15823,21.1238325 107.145163,21.1134072 C107.127741,21.0998401 107.110818,21.0857017 107.094823,21.0708493 C107.082256,21.0599956 107.070831,21.0479994 107.059121,21.0360746 C107.043626,21.0207937 107.028917,21.0044418 107.014993,20.9880898 C107.004354,20.9755938 106.994,20.9630977 106.984218,20.9494592 L106.984218,20.9494592 L106.946873,20.8954763 C106.937876,20.8818377 106.929451,20.868342 106.921311,20.8546321 C106.910386,20.8349954 106.900603,20.8153588 106.891035,20.7952937 C106.884252,20.7811553 106.877183,20.767017 106.871185,20.7522359 C106.862473,20.7304571 106.855404,20.7086069 106.848264,20.6868995 L106.841123,20.665558 L106.841123,20.665558 L106.834411,20.6438417 C106.827842,20.6192781 106.823487,20.594286 106.818845,20.5691511 C106.816703,20.556655 106.813419,20.5436591 106.811776,20.5310917 C106.806564,20.4923897 106.803636,20.4536876 106.803636,20.4144858 L106.803636,20.4144858 L106.803636,14.1040561 C106.803636,14.0648543 106.806564,14.0261522 106.811776,13.9880215 C106.813419,13.9749542 106.816703,13.9624581 106.818845,13.9493908 C106.823487,13.9242559 106.827842,13.8991925 106.834411,13.8747002 C106.838482,13.8599906 106.843623,13.8458522 106.848264,13.8317138 C106.855404,13.8098636 106.862473,13.7880848 106.871185,13.7668772 C106.877183,13.7521676 106.884252,13.737458 106.891035,13.7233196 C106.900603,13.7031117 106.910386,13.6834751 106.921311,13.6644811 C106.929451,13.6502713 106.937876,13.6366328 106.946873,13.6230656 C106.958584,13.6045001 106.971151,13.5865058 106.984218,13.5690827 C106.994,13.5560154 107.004354,13.5429482 107.014993,13.5303807 C107.028917,13.5141002 107.043626,13.4977482 107.059121,13.4824673 C107.070831,13.4705425 107.082256,13.4585463 107.094823,13.4476212 C107.110818,13.4329116 107.127741,13.4187018 107.145163,13.4051347 C107.15823,13.3947808 107.171297,13.3844269 107.185221,13.3746443 L107.192656,13.3691818 L107.199931,13.3637192 Z M121.90738,18.3302888 L118.049043,20.9107571 L118.049043,25.0617994 L125.021968,20.4133433 L121.90738,18.3302888 Z M112.410952,18.3302888 L109.296078,20.4133433 L116.269074,25.0617994 L116.269074,20.9107571 L112.410952,18.3302888 Z M117.159202,15.153795 L114.01141,17.259271 L117.159202,19.3647469 L120.306707,17.259271 L117.159202,15.153795 Z M125.734512,15.769957 L123.508123,17.259271 L125.734512,18.7486563 L125.734512,15.769957 Z M108.583605,15.769957 L108.583605,18.7486563 L110.810208,17.259271 L108.583605,15.769957 Z M116.269074,9.45674253 L109.296078,14.1051272 L112.410952,16.1888243 L116.269074,13.6077848 L116.269074,9.45674253 Z M118.049043,9.45674253 L118.049043,13.6077848 L121.90738,16.1888243 L125.021968,14.1051272 L118.049043,9.45674253 Z" id="Codepen-Icon"></path>
            </g>
        </g>
    </g>
</svg>