<?xml version="1.0" encoding="UTF-8"?>
<svg width="58px" height="80px" viewBox="0 0 58 80" version="1.1" xmlns="http://www.w3.org/2000/svg" xmlns:xlink="http://www.w3.org/1999/xlink">
    <title>icon</title>
    <g id="Landing-Page" stroke="none" stroke-width="1" fill="none" fill-rule="evenodd">
        <g id="Desktop-HD" transform="translate(-252.000000, -25.000000)">
            <g id="icon" transform="translate(252.000000, 25.000000)">
                <g id="ek55e2hsnl9m5" fill="#F58B61">
                    <path d="M28.5915493,79.8639456 C41.2989046,63.420797 49.6494522,51.0884354 53.6431925,42.866861 C57.6369328,34.6452868 58.7261347,29.9254939 56.9107981,28.707483 L0,28.9358601 C0.415608122,33.334055 1.32327626,37.1403393 2.72300469,40.3547132 C4.12273313,43.5690873 7.02727129,48.5172571 11.4366197,55.1992226 L28.5915493,79.8639456 Z" id="ek55e2hsnl9m6"></path>
                    <ellipse id="ek55e2hsnl9m7" cx="28.8638498" cy="28.8435374" rx="28.8638498" ry="28.8435374"></ellipse>
                </g>
                <g id="ek55e2hsnl9m8" transform="translate(8.000000, 10.000000)">
                    <circle id="ek55e2hsnl9m9" fill="#DB7C57" cx="21.7721519" cy="23.6772152" r="19.3227848"></circle>
                    <circle id="ek55e2hsnl9m10" fill="#FFFFFF" cx="19.3227848" cy="19.3227848" r="19.3227848"></circle>
                    <circle id="ek55e2hsnl9m11" fill="#8B5542" cx="19.3227848" cy="19.3227848" r="16.8734177"></circle>
                    <g id="ek55e2hsnl9m12_to" transform="translate(6.654555, 7.450717)" opacity="0" stroke="#8D6757" stroke-width="2">
                        <g id="ek55e2hsnl9m12_ts" transform="translate(11.742454, 13.191821) rotate(180.000000) translate(-11.742454, -13.191821) translate(0.242454, 0.691821)">
                            <path d="M11.5197245,24.4588942 C16.4510094,22.7461139 20.6566747,18.6864934 21.0722858,14.9930092 C24.6314696,12.1184442 19.9588503,12.2908938 20.354587,6.83734672 C19.6942419,3.63016941 15.1278945,1.18321222 12.9028282,1.18321222 C4.94308487,-2.55607132 4.76370683,3.91875819 2.96382208,5.52712393 C1.77647533,8.83783001 -1.55634363,10.2530972 1.56913967,14.9930092 C1.56913967,16.8920533 4.00666434,16.9982304 4.12932674,20.0226675 C6.20873027,25.1244874 9.28971456,25.6118206 11.5197245,24.4588942 Z" id="ek55e2hsnl9m12" style="mix-blend-mode: soft-light;"></path>
                        </g>
                    </g>
                    <g id="ek55e2hsnl9m13_to" transform="translate(9.551177, 11.084527)" opacity="0" stroke="#000000" stroke-opacity="0.709999979" stroke-width="2">
                        <g id="ek55e2hsnl9m13_ts" transform="translate(9.343720, 9.000000) scale(-1, 1) translate(-9.343720, -9.000000) translate(0.343720, 0.000000)">
                            <path d="M8.88852565,17.2436447 C12.443936,15.3819483 17.4215101,12.5869499 17.4215101,8.67984093 C17.4215101,6.85421687 15.3638118,4.69616254 13.8661001,3.09475164 C12.1584846,1.2689036 10.8761032,0.116037133 8.88852565,0.116037133 C6.80502079,0.116037133 5.02655766,1.13175946 3.19986922,3.09475164 C1.7555893,4.64680072 0,6.9546763 0,8.67984093 C0,10.3979097 1.74203995,10.6098815 3.19986922,12.4032341 C5.05733097,14.688195 6.89653214,18.2866995 8.88852565,17.2436447 Z" id="ek55e2hsnl9m13" style="mix-blend-mode: soft-light;"></path>
                        </g>
                    </g>
                    <g id="ek55e2hsnl9m14_to" transform="translate(15.045821, 14.314508)" opacity="0" stroke="#6F4D40" stroke-width="2">
                        <g id="ek55e2hsnl9m14_ts" transform="translate(4.500000, 4.862707) scale(-1, 1) rotate(-180.000000) translate(-4.500000, -4.862707) translate(0.000000, 0.362707)">
                            <path d="M4.7435088,8.61564139 C5.55486519,8.17622248 5.33245259,6.9294451 6.12682915,6.27400535 C7.02541593,5.53258194 8.89346983,5.35099974 8.89346983,4.30782056 C8.89346983,3.38948316 6.85523146,3.89551615 6.12682915,3.08996394 C5.29634157,2.17151388 5.71015397,-2.72073608e-07 4.7435088,-2.72073608e-07 C3.73020999,-2.72073608e-07 1.30903077,0.229561215 0.420632804,1.21699852 C-0.281783354,1.9977204 0.420632804,3.44001687 0.420632804,4.30782056 C0.420632804,5.1720547 1.26786235,5.27868218 1.97686812,6.18078598 C2.88023253,7.33018224 3.77471581,9.14032548 4.7435088,8.61564139 Z" id="ek55e2hsnl9m14" style="mix-blend-mode: soft-light;"></path>
                        </g>
                    </g>
                    <path d="M19.3227848,2.44936709 C24.4671682,2.44936709 29.0738485,4.75154763 32.1687711,8.38185392 C29.2228694,5.87040382 25.4023961,4.35443038 21.2278481,4.35443038 C11.9089167,4.35443038 4.35443038,11.9089167 4.35443038,21.2278481 C4.35443038,25.4023961 5.87040382,29.2228694 8.38186182,32.168779 C4.75154763,29.0738485 2.44936709,24.4671682 2.44936709,19.3227848 C2.44936709,10.0038534 10.0038534,2.44936709 19.3227848,2.44936709 Z" id="ek55e2hsnl9m15" fill="#553429"></path>
                    <rect id="ek55e2hsnl9m16" fill="#FFFFFF" x="37.2848101" y="17.4177215" width="5.71518987" height="4.35443038" rx="2"></rect>
                </g>
                <text id="NE" font-family="RobotoMono-Regular, Roboto Mono" font-size="20" font-weight="normal" fill="#E08E63">
                    <tspan x="15" y="37">NE</tspan>
                </text>
            </g>
        </g>
    </g>
</svg>