<?xml version="1.0" encoding="UTF-8"?>
<svg width="35px" height="35px" viewBox="0 0 35 35" version="1.1" xmlns="http://www.w3.org/2000/svg" xmlns:xlink="http://www.w3.org/1999/xlink">
    <title>Insta Icon</title>
    <g id="Landing-Page" stroke="none" stroke-width="1" fill="none" fill-rule="evenodd">
        <g id="Desktop-HD" transform="translate(-400.000000, -526.000000)" fill="#BBACAC">
            <g id="Group" transform="translate(250.000000, 526.000000)">
                <path d="M167.400309,0 C176.828797,0 184.499995,7.67071109 184.499995,17.0999995 C184.499995,26.529288 176.828797,34.1999991 167.400309,34.1999991 C157.970566,34.1999991 150.299996,26.529288 150.299996,17.0999995 C150.299996,7.67071109 157.970566,0 167.400309,0 Z M167.400309,1.84016732 C158.986029,1.84016732 152.139502,8.68556462 152.139502,17.0999995 C152.139502,25.5144345 158.986029,32.3598318 167.400309,32.3598318 C175.813962,32.3598318 182.659234,25.5144345 182.659234,17.0999995 C182.659234,8.68556462 175.813962,1.84016732 167.400309,1.84016732 Z M167.398017,7.5311007 L168.440344,7.53205059 C169.512056,7.53438714 170.042726,7.54132389 170.516592,7.55601042 L170.772341,7.56480876 C170.942966,7.57121194 171.117722,7.57871561 171.319893,7.58747121 C172.109466,7.60386263 172.891042,7.75378419 173.630642,8.03083923 C174.919944,8.52218215 175.938192,9.54044938 176.429126,10.829375 C176.706576,11.5693878 176.856495,12.3505791 176.872886,13.1405657 C176.915267,13.9094903 176.925556,14.2818509 176.928055,15.5386229 L176.928634,17.6197552 C176.927425,19.0059684 176.921093,19.6227199 176.904978,20.1575989 L176.898467,20.3556837 C176.891479,20.5526166 176.883034,20.7501228 176.872886,20.9844617 C176.856495,21.7740486 176.706576,22.5552398 176.429126,23.2952526 C175.938192,24.5845781 174.919944,25.6024455 173.630642,26.0937884 C172.891042,26.3708434 172.109466,26.5211648 171.319893,26.5371564 C171.166111,26.5456933 171.028191,26.5529373 170.895886,26.5590843 L170.505567,26.5744299 C170.067822,26.5882588 169.5786,26.5920737 168.658359,26.593126 L166.840786,26.5933048 C164.761504,26.5914901 164.41348,26.5781196 163.476141,26.5371564 C162.686569,26.5211648 161.904992,26.3708434 161.165393,26.0937884 C159.876091,25.6024455 158.857842,24.5845781 158.366908,23.2952526 C158.081463,22.5692325 157.919151,21.800035 157.887168,21.0204429 C157.878557,20.8641554 157.871271,20.724257 157.865106,20.5899997 L157.85304,20.2929059 C157.839245,19.8973818 157.834163,19.4800791 157.832291,18.750803 L157.832123,16.0561236 C157.835646,14.3997223 157.849957,14.0353899 157.887168,13.1761471 C157.903559,12.3865602 158.053478,11.605369 158.330928,10.865756 C158.822262,9.57643055 159.84011,8.55816332 161.129412,8.06722019 C161.869012,7.78976536 162.650588,7.6398438 163.440161,7.62345238 C164.260332,7.57824526 164.62931,7.56955159 166.101695,7.56787973 L167.362037,7.56748166 L167.398017,7.5311007 Z M168.599555,9.26699073 L167.362037,9.26659266 L167.362037,9.2825843 L166.568033,9.28295279 C164.743981,9.28496175 164.403793,9.29611568 163.51612,9.33855501 C162.912447,9.34375229 162.31437,9.45489414 161.749077,9.66638349 C160.933118,9.98781531 160.287468,10.6334775 159.966042,11.4494506 C159.754557,12.0147548 159.643417,12.6128419 159.63822,13.216526 C159.627456,13.409502 159.618763,13.5766039 159.611741,13.7387016 L159.604092,13.9321525 C159.590297,14.3195929 159.585215,14.7262932 159.583342,15.4407578 L159.582454,16.0388199 L159.582407,17.6100186 L159.582407,17.6100186 L159.583365,18.3000188 C159.586804,19.7437972 159.599471,20.0976795 159.63822,20.9085014 C159.643417,21.5121856 159.754557,22.1102726 159.966042,22.6755769 C160.281871,23.5007451 160.928721,24.1556025 161.749077,24.4826314 C162.31437,24.6941207 162.912447,24.8048628 163.51612,24.8104599 C164.249415,24.8513615 164.606961,24.8623735 165.738586,24.8653383 L166.123014,24.8660325 L168.157123,24.8660621 L168.157123,24.8660621 L168.60106,24.865316 C170.046003,24.8618768 170.39747,24.8492088 171.207954,24.8104599 C171.811627,24.8048628 172.409703,24.6941207 172.974997,24.4826314 C173.802549,24.1611996 174.456594,23.506742 174.77802,22.6795748 C174.989506,22.1142706 175.100646,21.5161835 175.105843,20.9124993 C175.116606,20.7195234 175.1253,20.5524067 175.132321,20.3902879 L175.13997,20.1968093 C175.154723,19.7824 175.159512,19.3459442 175.161066,18.534706 L175.161444,16.2723855 C175.159435,14.4480952 175.148281,14.1082133 175.105843,13.2205239 C175.100646,12.6168398 174.989506,12.0187527 174.77802,11.4534485 C174.456594,10.6262813 173.802549,9.97182368 172.974997,9.65039185 C172.409703,9.43890251 171.811627,9.32736087 171.207954,9.32256338 C170.976387,9.30964706 170.782078,9.29971143 170.588965,9.29206864 L170.394914,9.28516465 C169.969547,9.27175155 169.493361,9.26802569 168.599555,9.26699073 Z M167.361997,12.1769899 C170.060135,12.1769899 172.247351,14.3642455 172.247351,17.0624338 C172.247351,19.760622 170.060135,21.9478776 167.361997,21.9478776 C164.663858,21.9478776 162.476643,19.760622 162.476643,17.0624338 C162.476643,14.3642455 164.663858,12.1769899 167.361997,12.1769899 Z M167.361997,13.8920925 C165.611345,13.8920925 164.191714,15.31135 164.191714,17.0624338 C164.191714,18.8131178 165.611345,20.232775 167.361997,20.232775 C169.113048,20.232775 170.53228,18.8131178 170.53228,17.0624338 C170.53228,15.31135 169.113048,13.8920925 167.361997,13.8920925 Z M172.439327,10.8416086 C173.070985,10.8416086 173.582708,11.3533408 173.582708,11.9850103 C173.582708,12.6162801 173.070985,13.1284121 172.439327,13.1284121 C171.807669,13.1284121 171.295946,12.6162801 171.295946,11.9850103 C171.295946,11.3533408 171.807669,10.8416086 172.439327,10.8416086 Z" id="Insta-Icon"></path>
            </g>
        </g>
    </g>
</svg>