<?xml version="1.0" encoding="UTF-8"?>
<svg width="35px" height="35px" viewBox="0 0 35 35" version="1.1" xmlns="http://www.w3.org/2000/svg" xmlns:xlink="http://www.w3.org/1999/xlink">
    <title>Linkedin Icon</title>
    <g id="Landing-Page" stroke="none" stroke-width="1" fill="none" fill-rule="evenodd">
        <g id="Desktop-HD" transform="translate(-250.000000, -526.000000)" fill="#BBACAC">
            <g id="Group" transform="translate(250.000000, 526.000000)">
                <path d="M17.1003133,0 C26.5288012,0 34.1999991,7.67071109 34.1999991,17.0999995 C34.1999991,26.529288 26.5288012,34.1999991 17.1003133,34.1999991 C7.67057033,34.1999991 -2.84217094e-14,26.529288 -2.84217094e-14,17.0999995 C-2.84217094e-14,7.67071109 7.67057033,0 17.1003133,0 Z M17.1003133,1.84016732 C8.68603284,1.84016732 1.83950594,8.68556462 1.83950594,17.0999995 C1.83950594,25.5144345 8.68603284,32.3598318 17.1003133,32.3598318 C25.5139663,32.3598318 32.3592379,25.5144345 32.3592379,17.0999995 C32.3592379,8.68556462 25.5139663,1.84016732 17.1003133,1.84016732 Z M12.5376357,13.4403762 C12.6951642,13.4403762 12.8231953,13.5684097 12.8231953,13.7259411 L12.8231953,13.7259411 L12.8231953,24.7870286 C12.8231953,24.9451876 12.6951642,25.0725935 12.5376357,25.0725935 L12.5376357,25.0725935 L9.24208956,25.0725935 C9.08456108,25.0725935 8.95652996,24.9451876 8.95652996,24.7870286 L8.95652996,24.7870286 L8.95652996,13.7259411 C8.95652996,13.5684097 9.08456108,13.4403762 9.24208956,13.4403762 L9.24208956,13.4403762 Z M22.3150711,13.1673637 C24.8593758,13.1673637 26.7672905,14.8299159 26.7672905,18.4023008 L26.7672905,24.7870286 C26.7672905,24.9451876 26.6392594,25.0725935 26.4817309,25.0725935 L23.1855572,25.0725935 C23.0274011,25.0725935 22.8999976,24.9451876 22.8999976,24.7870286 L22.8999976,18.8491627 C22.8999976,17.2864012 22.3414304,16.2194556 20.9412469,16.2194556 C19.8724381,16.2194556 19.2373034,16.9380749 18.9573922,17.6334723 C18.8557204,17.8820079 18.8293611,18.2271962 18.8293611,18.5761501 L18.8293611,24.7870286 C18.8293611,24.94456 18.70133,25.0725935 18.5438015,25.0725935 L15.2488829,25.0725935 C15.0907268,25.0725935 14.9620681,24.9451876 14.9626934,24.7870286 C14.9674288,23.7928864 14.9823299,20.392176 14.9843293,17.5552761 L14.9840017,16.0816447 C14.9825885,15.0451377 14.9783141,14.1933708 14.9695994,13.7297067 C14.9664614,13.5696649 15.0951201,13.4403762 15.255159,13.4403762 L18.5444291,13.4403762 C18.7019576,13.4403762 18.8299887,13.5684097 18.8299887,13.7259411 L18.8299887,15.0891209 C19.3433684,14.2976984 20.2602971,13.1673637 22.3150711,13.1673637 Z M10.7746974,7.82071109 C11.9175634,7.82071109 12.8439062,8.74769851 12.8439062,9.89121313 C12.8439062,11.0341001 11.9175634,11.9610875 10.7746974,11.9610875 C9.63057615,11.9610875 8.70423334,11.0341001 8.70423334,9.89121313 C8.70423334,8.74769851 9.63057615,7.82071109 10.7746974,7.82071109 Z" id="Linkedin-Icon"></path>
            </g>
        </g>
    </g>
</svg>