<?xml version="1.0" encoding="UTF-8"?>
<svg width="35px" height="35px" viewBox="0 0 35 35" version="1.1" xmlns="http://www.w3.org/2000/svg" xmlns:xlink="http://www.w3.org/1999/xlink">
    <title>Github Icon</title>
    <g id="Landing-Page" stroke="none" stroke-width="1" fill="none" fill-rule="evenodd">
        <g id="Desktop-HD" transform="translate(-300.000000, -526.000000)" fill="#BBACAC">
            <g id="Group" transform="translate(250.000000, 526.000000)">
                <path d="M67.500312,0 C76.9287998,0 84.5999978,7.67071109 84.5999978,17.0999995 C84.5999978,26.529288 76.9287998,34.1999991 67.500312,34.1999991 C58.070569,34.1999991 50.3999987,26.529288 50.3999987,17.0999995 C50.3999987,7.67071109 58.070569,0 67.500312,0 Z M67.500312,1.84016732 C59.0860315,1.84016732 52.2395046,8.68556462 52.2395046,17.0999995 C52.2395046,24.2943414 57.2444869,30.3416775 63.9550791,31.944144 C63.9608906,31.8067758 63.9671066,31.6627852 63.9730629,31.5179371 L63.9870511,31.1614724 C64.0023003,30.7505978 64.0130078,30.3695378 64.0108197,30.147562 C64.0040481,29.4816346 64.0008696,28.9006886 64.0008696,28.4049982 L63.5471029,28.482915 C63.2577894,28.5355225 62.8928136,28.5578138 62.4521755,28.5515036 C62.0117446,28.5453992 61.5545229,28.499582 61.0811323,28.4143949 C60.6075344,28.3299622 60.1670345,28.1341416 59.759287,27.8273444 C59.3517468,27.5205473 59.0624334,27.1189606 58.8914157,26.6232017 L58.6941409,26.1725741 C58.5626473,25.8725673 58.3556296,25.5392949 58.0728114,25.1739916 C57.7899931,24.8083454 57.5039964,24.560466 57.2146829,24.4299417 L57.0765559,24.3317913 C56.9845174,24.2665635 56.8991122,24.1878923 56.8201332,24.0966008 C56.7412232,24.0053093 56.6821444,23.9139491 56.6426894,23.8224519 C56.6031653,23.730886 56.6359178,23.6557814 56.7412923,23.5968637 C56.8466668,23.537946 57.037101,23.5093446 57.313424,23.5093446 L57.7078356,23.5678507 C57.9708918,23.6201839 58.2962744,23.7764974 58.684398,24.0377517 C59.0723144,24.2988002 59.3912018,24.6381769 59.6411294,25.0557448 C59.9437787,25.5911479 60.308409,25.9991134 60.7360568,26.2798468 C61.163359,26.5605802 61.5941852,26.7007069 62.0281208,26.7007069 C62.4620565,26.7007069 62.8368442,26.6680587 63.1526222,26.6031052 C63.4680547,26.5378088 63.7640016,26.4396584 64.0403246,26.3092028 C64.1586895,25.4341485 64.4809627,24.7619109 65.0068679,24.2920099 C64.2572924,24.2138188 63.5833793,24.0960521 62.9847831,23.9394641 C62.3865323,23.7826704 61.7683122,23.5282065 61.1305374,23.1753863 C60.4924171,22.8230463 59.9630571,22.3855192 59.5423192,21.8635594 C59.1215122,21.3413252 58.7761602,20.6557129 58.506747,19.8073396 C58.2371956,18.9586233 58.1023853,17.9795886 58.1023853,16.8699611 C58.1023853,15.290021 58.6220025,13.9455459 59.6610296,12.8357812 C59.1743031,11.6479625 59.2202533,10.316382 59.7990184,8.84117688 C60.1804395,8.72354731 60.746076,8.81182093 61.4956514,9.10544904 C62.2453651,9.39921432 62.7942798,9.65086616 63.1429485,9.8595129 C63.4916171,10.0680911 63.7709805,10.2448441 63.9814531,10.3881944 C65.2048337,10.0488862 66.4673238,9.87919785 67.7692689,9.87919785 C69.071214,9.87919785 70.3339805,10.0488862 71.5574303,10.3881944 L72.3070748,9.91843057 C72.8197131,9.60498034 73.425081,9.31773098 74.1217273,9.0566139 C74.8187882,8.795634 75.3518105,8.72375308 75.7202412,8.84138265 C76.3118585,10.3166564 76.3645803,11.6481683 75.8777156,12.8359869 C76.9166736,13.9457516 77.436498,15.2905697 77.436498,16.8701669 C77.436498,17.9797944 77.3012041,18.9619156 77.0320673,19.8171477 C76.762585,20.6725171 76.4142618,21.3574436 75.9869596,21.8733676 C75.5591736,22.389223 75.0264278,22.8233207 74.388653,23.1755921 C73.75074,23.5281379 73.1323126,23.7826018 72.5340619,23.9393955 C71.9355347,24.0961892 71.2616216,24.2140246 70.5120462,24.2923528 C71.1957021,24.8796091 71.5375992,25.806585 71.5375992,27.072869 L71.4451405,31.8428547 C77.9530275,30.0997033 82.7592366,24.1506786 82.7592366,17.0999995 C82.7592366,8.68556462 75.9139649,1.84016732 67.500312,1.84016732 Z" id="Github-Icon"></path>
            </g>
        </g>
    </g>
</svg>